<?xml version="1.0" encoding="utf-8"?>
<!-- Generator: Adobe Illustrator 16.0.0, SVG Export Plug-In . SVG Version: 6.00 Build 0)  -->
<!DOCTYPE svg PUBLIC "-//W3C//DTD SVG 1.1//EN" "http://www.w3.org/Graphics/SVG/1.1/DTD/svg11.dtd">
<svg version="1.1" xmlns="http://www.w3.org/2000/svg" xmlns:xlink="http://www.w3.org/1999/xlink" x="0px" y="0px" width="1280px"
	 height="800px" viewBox="0 0 1280 800" enable-background="new 0 0 1280 800" xml:space="preserve">
<g id="图层_1">
	<rect x="376" y="82" fill="#DC7546" width="600" height="600"/>
	<polygon fill="#EED57E" points="576,482 526,482 476,482 426,482 426,532 426,582 426,631.5 476.5,582 526,582 576,582 626,582 
		626,532 626,482 	"/>
	<g>
		<path fill="#C6643B" d="M897.273,461.631c-129.01-102.547-260.277-202.188-392.32-300.788
			c-16.575,14.242-33.152,28.485-49.727,42.728c100.6,134.705,202.246,268.628,306.863,400.244
			C807.148,556.414,852.221,509.029,897.273,461.631z"/>
		<path fill="#EED57E" d="M507.75,188.445c-5.646-5.009-8.468-7.514-14.113-12.521c2.793-2.415,4.192-3.622,6.988-6.035
			c5.847,4.777,8.767,7.168,14.612,11.95C512.242,184.482,510.744,185.803,507.75,188.445z"/>
		<path fill="#EED57E" d="M523.7,202.606c-5.398-4.794-8.098-7.19-13.496-11.982c3.028-2.684,4.543-4.024,7.574-6.708
			c5.59,4.574,8.384,6.859,13.971,11.435C528.528,198.253,526.92,199.704,523.7,202.606z"/>
		<path fill="#EED57E" d="M514.98,231.561c-4.942-5.317-7.412-7.977-12.356-13.295c3.34-3.001,5.011-4.503,8.348-7.506
			c5.142,5.091,7.711,7.637,12.851,12.727C520.284,226.715,518.516,228.331,514.98,231.561z"/>
		<path fill="#EED57E" d="M512.099,249.918c-4.714-5.582-7.07-8.374-11.78-13.957c3.463-3.146,5.198-4.721,8.662-7.867
			c4.908,5.356,7.362,8.035,12.271,13.389C517.591,244.856,515.76,246.542,512.099,249.918z"/>
		<path fill="#EED57E" d="M526.027,266.4c-4.715-5.578-7.073-8.367-11.786-13.945c3.696-3.416,5.547-5.123,9.243-8.537
			c4.909,5.354,7.364,8.032,12.274,13.385C531.866,260.942,529.92,262.763,526.027,266.4z"/>
		<path fill="#EED57E" d="M540.501,283.512c-4.935-5.829-7.4-8.744-12.331-14.574c3.93-3.681,5.893-5.521,9.82-9.2
			c5.135,5.596,7.703,8.394,12.838,13.99C546.698,277.641,544.63,279.598,540.501,283.512z"/>
		<path fill="#EED57E" d="M554.448,299.98c-4.723-5.573-7.084-8.359-11.801-13.934c4.164-3.956,6.248-5.934,10.414-9.888
			c4.913,5.353,7.369,8.027,12.283,13.378C560.987,293.714,558.806,295.802,554.448,299.98z"/>
		<path fill="#EED57E" d="M568.942,317.07c-4.939-5.821-7.411-8.732-12.349-14.558c4.394-4.217,6.591-6.327,10.984-10.544
			c5.139,5.595,7.706,8.392,12.847,13.982C575.831,310.398,573.533,312.623,568.942,317.07z"/>
		<path fill="#EED57E" d="M582.909,333.519c-4.729-5.565-7.094-8.35-11.821-13.917c4.628-4.488,6.942-6.731,11.569-11.22
			c4.918,5.348,7.377,8.024,12.294,13.37C590.135,326.459,587.724,328.812,582.909,333.519z"/>
		<path fill="#EED57E" d="M596.885,349.955c-4.732-5.562-7.099-8.344-11.826-13.908c4.849-4.746,7.276-7.119,12.127-11.866
			c4.918,5.348,7.377,8.021,12.297,13.368C604.444,342.512,601.924,344.992,596.885,349.955z"/>
		<path fill="#EED57E" d="M611.413,367.014c-4.736-5.559-7.104-8.336-11.84-13.897c5.081-5.013,7.621-7.518,12.705-12.531
			c4.92,5.345,7.381,8.018,12.302,13.359C619.314,359.173,616.679,361.787,611.413,367.014z"/>
		<path fill="#EED57E" d="M625.413,383.428c-4.742-5.551-7.109-8.33-11.848-13.888c5.3-5.268,7.949-7.9,13.252-13.167
			c4.92,5.344,7.381,8.015,12.307,13.355C633.637,375.209,630.895,377.949,625.413,383.428z"/>
		<path fill="#EED57E" d="M639.964,400.461c-4.961-5.803-7.44-8.703-12.396-14.508c5.517-5.521,8.275-8.277,13.793-13.796
			c5.148,5.585,7.721,8.374,12.871,13.956C648.525,391.852,645.674,394.721,639.964,400.461z"/>
		<path fill="#EED57E" d="M530.71,248.472c-5.171-5.556-7.754-8.335-12.922-13.892c3.581-3.281,5.372-4.921,8.953-8.202
			c5.374,5.321,8.061,7.982,13.433,13.304C536.388,243.198,534.495,244.955,530.71,248.472z"/>
		<path fill="#EED57E" d="M544.756,263.571c-4.945-5.313-7.418-7.971-12.362-13.285c3.813-3.548,5.72-5.322,9.532-8.87
			c5.14,5.091,7.709,7.636,12.849,12.726C550.768,257.913,548.763,259.801,544.756,263.571z"/>
		<path fill="#EED57E" d="M559.931,279.874c-4.946-5.313-7.419-7.969-12.363-13.283c4.051-3.823,6.075-5.734,10.128-9.558
			c5.141,5.091,7.708,7.637,12.848,12.727C566.298,273.806,564.177,275.828,559.931,279.874z"/>
		<path fill="#EED57E" d="M574.547,295.566c-4.947-5.311-7.421-7.967-12.367-13.278c4.279-4.086,6.42-6.128,10.701-10.215
			c5.138,5.09,7.707,7.636,12.846,12.727C581.256,289.106,579.021,291.262,574.547,295.566z"/>
		<path fill="#EED57E" d="M589.734,311.861c-4.95-5.31-7.426-7.963-12.373-13.274c4.515-4.357,6.771-6.537,11.287-10.895
			c5.139,5.091,7.707,7.637,12.847,12.727C596.789,304.997,594.436,307.285,589.734,311.861z"/>
		<path fill="#EED57E" d="M604.358,327.548c-5.178-5.55-7.763-8.324-12.938-13.876c4.729-4.607,7.095-6.911,11.824-11.518
			c5.373,5.323,8.06,7.984,13.432,13.306C611.748,320.296,609.286,322.713,604.358,327.548z"/>
		<path fill="#EED57E" d="M619.552,343.834c-4.951-5.308-7.429-7.962-12.382-13.271c4.972-4.885,7.455-7.325,12.428-12.209
			c5.136,5.091,7.706,7.636,12.846,12.728C627.286,336.183,624.708,338.732,619.552,343.834z"/>
		<path fill="#EED57E" d="M634.187,359.51c-5.181-5.545-7.769-8.32-12.946-13.868c5.182-5.13,7.772-7.693,12.955-12.825
			c5.373,5.325,8.056,7.985,13.429,13.309C642.248,351.479,639.562,354.155,634.187,359.51z"/>
		<path fill="#EED57E" d="M649.391,375.783c-4.955-5.303-7.434-7.954-12.389-13.259c5.418-5.401,8.125-8.104,13.543-13.506
			c5.139,5.091,7.705,7.639,12.846,12.729C657.789,367.362,654.99,370.169,649.391,375.783z"/>
		<path fill="#EED57E" d="M664.035,391.447c-5.182-5.539-7.771-8.311-12.953-13.857c5.623-5.644,8.436-8.463,14.059-14.108
			c5.371,5.325,8.061,7.987,13.43,13.31C672.758,382.656,669.85,385.586,664.035,391.447z"/>
		<path fill="#EED57E" d="M539.646,216.77c-5.396-4.794-8.097-7.192-13.493-11.985c3.253-2.94,4.881-4.411,8.136-7.352
			c5.587,4.576,8.377,6.865,13.963,11.442C544.807,212.033,543.087,213.612,539.646,216.77z"/>
		<path fill="#EED57E" d="M556.197,231.484c-5.394-4.798-8.091-7.196-13.487-11.991c3.486-3.206,5.229-4.81,8.715-8.016
			c5.583,4.578,8.375,6.868,13.954,11.45C561.706,226.352,559.87,228.062,556.197,231.484z"/>
		<path fill="#EED57E" d="M572.131,245.658c-5.392-4.798-8.088-7.196-13.482-11.993c3.705-3.461,5.559-5.192,9.266-8.655
			c5.58,4.583,8.371,6.875,13.948,11.461C577.97,240.146,576.024,241.982,572.131,245.658z"/>
		<path fill="#EED57E" d="M588.671,260.387c-5.388-4.801-8.084-7.201-13.475-12.001c3.933-3.725,5.899-5.585,9.835-9.311
			c5.575,4.586,8.363,6.879,13.938,11.468C594.85,254.48,592.792,256.449,588.671,260.387z"/>
		<path fill="#EED57E" d="M603.983,274.028c-5.146-4.584-7.717-6.877-12.861-11.459c4.152-3.978,6.23-5.964,10.38-9.939
			c5.321,4.38,7.979,6.571,13.298,10.955C610.473,267.763,608.307,269.852,603.983,274.028z"/>
		<path fill="#EED57E" d="M621.122,289.316c-5.63-5.024-8.446-7.536-14.079-12.559c4.37-4.225,6.554-6.338,10.923-10.563
			c5.821,4.802,8.733,7.204,14.553,12.01C627.958,282.649,625.679,284.872,621.122,289.316z"/>
		<path fill="#EED57E" d="M636.417,302.975c-5.139-4.591-7.708-6.885-12.849-11.473c4.591-4.483,6.887-6.725,11.477-11.208
			c5.314,4.389,7.968,6.584,13.279,10.975C643.561,295.951,641.18,298.292,636.417,302.975z"/>
		<path fill="#EED57E" d="M653.541,318.277c-5.625-5.031-8.439-7.544-14.064-12.572c4.802-4.729,7.203-7.093,12.007-11.821
			c5.813,4.812,8.719,7.219,14.529,12.033C661.023,310.86,658.527,313.332,653.541,318.277z"/>
		<path fill="#EED57E" d="M668.82,331.947c-5.133-4.595-7.701-6.892-12.834-11.483c5.02-4.982,7.531-7.473,12.553-12.454
			c5.305,4.396,7.953,6.597,13.258,10.996C676.604,324.184,674.01,326.772,668.82,331.947z"/>
		<path fill="#EED57E" d="M685.318,346.723c-5.375-4.817-8.064-7.226-13.443-12.039c5.23-5.224,7.844-7.836,13.076-13.059
			c5.549,4.611,8.328,6.92,13.877,11.533C693.422,338.584,690.721,341.297,685.318,346.723z"/>
		<path fill="#EED57E" d="M701.191,360.96c-5.373-4.819-8.059-7.23-13.43-12.048c5.432-5.462,8.152-8.193,13.586-13.655
			c5.547,4.615,8.322,6.925,13.863,11.546C709.604,352.465,706.799,355.297,701.191,360.96z"/>
		<path fill="#EED57E" d="M516.596,180.636c-6.135-4.944-9.203-7.416-15.34-12.358c1.775-1.529,2.66-2.296,4.434-3.826
			c6.271,4.789,9.405,7.186,15.673,11.978C519.457,178.111,518.504,178.954,516.596,180.636z"/>
		<path fill="#EED57E" d="M534.488,195.063c-6.131-4.949-9.197-7.422-15.332-12.367c1.927-1.708,2.89-2.56,4.817-4.269
			c6.268,4.794,9.402,7.191,15.664,11.988C537.579,192.276,536.546,193.205,534.488,195.063z"/>
		<path fill="#EED57E" d="M551.73,208.987c-6.128-4.953-9.192-7.428-15.325-12.378c2.075-1.876,3.113-2.815,5.189-4.694
			c6.264,4.798,9.395,7.199,15.653,12.001C555.042,205.944,553.937,206.958,551.73,208.987z"/>
		<path fill="#EED57E" d="M568.961,222.92c-5.869-4.749-8.806-7.123-14.678-11.869c2.229-2.054,3.343-3.079,5.572-5.133
			c5.998,4.603,8.996,6.903,14.989,11.51C572.492,219.625,571.313,220.724,568.961,222.92z"/>
		<path fill="#EED57E" d="M825.063,433.152c-5.785-4.832-8.68-7.25-14.471-12.076c4.271-4.428,6.402-6.639,10.676-11.066
			c5.895,4.703,8.844,7.057,14.73,11.768C831.623,426.328,829.434,428.604,825.063,433.152z"/>
		<path fill="#EED57E" d="M843.281,448.404c-6.279-5.264-9.42-7.893-15.707-13.146c4.396-4.572,6.592-6.857,10.984-11.43
			c6.398,5.123,9.596,7.688,15.984,12.818C850.037,441.35,847.785,443.701,843.281,448.404z"/>
		<path fill="#EED57E" d="M860.225,462.631c-5.77-4.854-8.654-7.275-14.43-12.119c4.523-4.725,6.781-7.086,11.303-11.811
			c5.877,4.723,8.816,7.086,14.686,11.816C867.16,455.361,864.846,457.787,860.225,462.631z"/>
		<path fill="#EED57E" d="M877.139,476.876c-6.01-5.068-9.018-7.604-15.035-12.667c4.635-4.857,6.953-7.287,11.592-12.148
			c6.121,4.939,9.182,7.412,15.293,12.359C884.248,469.403,881.879,471.892,877.139,476.876z"/>
		<path fill="#EED57E" d="M586.82,237.383c-6.122-4.961-9.182-7.441-15.307-12.398c2.373-2.22,3.563-3.33,5.938-5.552
			c6.253,4.808,9.38,7.212,15.629,12.025C590.576,233.827,589.323,235.012,586.82,237.383z"/>
		<path fill="#EED57E" d="M604.028,251.34c-5.861-4.758-8.793-7.135-14.656-11.891c2.524-2.395,3.787-3.593,6.311-5.988
			c5.988,4.613,8.981,6.921,14.965,11.538C608,247.536,606.676,248.804,604.028,251.34z"/>
		<path fill="#EED57E" d="M621.86,265.827c-6.111-4.97-9.168-7.453-15.283-12.42c2.669-2.56,4.002-3.839,6.672-6.4
			c6.242,4.818,9.364,7.229,15.602,12.053C626.055,261.768,624.655,263.12,621.86,265.827z"/>
		<path fill="#EED57E" d="M639.042,279.811c-5.853-4.768-8.778-7.149-14.635-11.913c2.817-2.732,4.223-4.098,7.042-6.828
			c5.976,4.622,8.962,6.937,14.936,11.564C643.447,275.505,641.979,276.94,639.042,279.811z"/>
		<path fill="#EED57E" d="M656.844,294.327c-6.1-4.979-9.152-7.467-15.258-12.442c2.957-2.896,4.436-4.343,7.395-7.239
			c6.23,4.832,9.344,7.248,15.568,12.085C661.469,289.77,659.928,291.289,656.844,294.327z"/>
		<path fill="#EED57E" d="M673.996,308.341c-5.842-4.776-8.764-7.165-14.609-11.938c3.104-3.063,4.654-4.595,7.758-7.657
			c5.963,4.635,8.943,6.956,14.906,11.596C678.826,303.542,677.219,305.142,673.996,308.341z"/>
		<path fill="#EED57E" d="M691.133,322.37c-6.088-4.99-9.135-7.484-15.23-12.471c3.232-3.217,4.854-4.826,8.092-8.044
			c6.215,4.844,9.324,7.269,15.537,12.119C696.172,317.334,694.492,319.011,691.133,322.37z"/>
		<path fill="#EED57E" d="M708.889,336.938c-5.832-4.788-8.746-7.183-14.582-11.966c3.383-3.39,5.074-5.084,8.457-8.472
			c5.951,4.649,8.926,6.975,14.869,11.63C714.137,331.652,712.387,333.415,708.889,336.938z"/>
		<path fill="#EED57E" d="M726.625,351.521c-6.078-5.004-9.119-7.504-15.203-12.502c3.521-3.546,5.275-5.318,8.797-8.864
			c6.203,4.859,9.303,7.29,15.5,12.155C732.08,345.997,730.262,347.838,726.625,351.521z"/>
		<path fill="#EED57E" d="M743.076,365.083c-5.816-4.802-8.727-7.2-14.551-11.997c3.65-3.701,5.475-5.552,9.129-9.255
			c5.938,4.664,8.902,7.001,14.832,11.67C748.723,359.333,746.842,361.25,743.076,365.083z"/>
		<path fill="#EED57E" d="M765.811,418.736c-5.697-5.135-8.547-7.701-14.25-12.832c6.34-6.504,9.514-9.756,15.852-16.258
			c5.879,4.92,8.814,7.387,14.689,12.314C776.668,407.551,771.242,413.146,765.811,418.736z"/>
		<path fill="#EED57E" d="M749.084,403.672c-5.699-5.131-8.555-7.693-14.26-12.822c6.133-6.254,9.199-9.385,15.328-15.643
			c5.885,4.918,8.826,7.375,14.705,12.297C758.549,393.971,755.393,397.203,749.084,403.672z"/>
		<path fill="#EED57E" d="M782.246,433.93c-5.598-5.057-8.396-7.586-13.998-12.639c5.367-5.531,10.738-11.063,16.105-16.594
			c5.771,4.854,8.654,7.281,14.42,12.141C793.266,422.537,787.754,428.232,782.246,433.93z"/>
		<path fill="#EED57E" d="M746.557,438.564c-5.488-5.379-8.234-8.068-13.725-13.443c6.338-6.506,9.508-9.756,15.848-16.262
			c5.668,5.172,8.502,7.756,14.168,12.928C757.42,427.383,751.984,432.969,746.557,438.564z"/>
		<path fill="#EED57E" d="M730.445,422.781c-5.492-5.377-8.238-8.066-13.729-13.441c6.131-6.258,9.193-9.387,15.324-15.645
			c5.67,5.166,8.508,7.748,14.176,12.918C739.906,413.08,736.752,416.313,730.445,422.781z"/>
		<path fill="#EED57E" d="M761.965,454.902c-5.391-5.299-8.084-7.947-13.479-13.242c5.613-5.783,11.223-11.57,16.834-17.352
			c5.568,5.092,8.354,7.637,13.92,12.727C773.482,442.994,767.725,448.949,761.965,454.902z"/>
		<path fill="#EED57E" d="M821.68,470.022c-5.68-5.151-8.521-7.731-14.201-12.88c5.854-6.092,11.707-12.184,17.561-18.275
			c5.852,4.951,8.775,7.428,14.617,12.385C833.664,457.508,827.674,463.766,821.68,470.022z"/>
		<path fill="#EED57E" d="M805.008,454.904c-5.684-5.15-8.525-7.723-14.213-12.869c5.686-5.895,11.373-11.793,17.064-17.688
			c5.855,4.945,8.785,7.418,14.635,12.367C816.668,442.779,810.838,448.84,805.008,454.904z"/>
		<path fill="#EED57E" d="M837.93,485.982c-5.574-5.08-8.361-7.618-13.941-12.692c5.922-6.186,11.846-12.374,17.768-18.562
			c5.74,4.887,8.607,7.33,14.338,12.228C850.043,473.3,843.984,479.639,837.93,485.982z"/>
		<path fill="#EED57E" d="M854.285,500.896c-5.811-5.307-8.721-7.957-14.539-13.258c6.076-6.361,12.148-12.724,18.217-19.089
			c5.982,5.105,8.969,7.66,14.943,12.774C866.699,487.85,860.494,494.371,854.285,500.896z"/>
		<path fill="#EED57E" d="M800.838,491.775c-5.484-5.383-8.229-8.07-13.715-13.45c5.852-6.092,11.707-12.182,17.559-18.274
			c5.658,5.182,8.482,7.772,14.135,12.958C812.826,479.264,806.83,485.518,800.838,491.775z"/>
		<path fill="#EED57E" d="M784.74,475.987c-5.488-5.383-8.234-8.07-13.723-13.45c5.686-5.9,11.377-11.791,17.061-17.688
			c5.66,5.178,8.492,7.768,14.145,12.949C796.395,463.859,790.568,469.923,784.74,475.987z"/>
		<path fill="#EED57E" d="M816.465,508.473c-5.391-5.301-8.084-7.949-13.475-13.252c6.191-6.469,12.385-12.934,18.572-19.401
			c5.559,5.103,8.336,7.653,13.891,12.757C829.123,495.209,822.795,501.842,816.465,508.473z"/>
		<path fill="#EED57E" d="M832.281,524.029c-5.625-5.531-8.434-8.297-14.059-13.828c6.348-6.652,12.693-13.305,19.041-19.959
			c5.795,5.328,8.691,7.992,14.484,13.324C845.258,510.387,838.77,517.209,832.281,524.029z"/>
		<path fill="#EED57E" d="M780.002,513.531c-5.293-5.609-7.941-8.414-13.232-14.023c5.848-6.096,11.707-12.184,17.559-18.275
			c5.459,5.41,8.191,8.117,13.65,13.529C791.988,501.018,785.994,507.273,780.002,513.531z"/>
		<path fill="#EED57E" d="M764.465,497.068c-5.291-5.613-7.936-8.42-13.225-14.033c5.686-5.892,11.375-11.792,17.063-17.685
			c5.463,5.412,8.191,8.117,13.652,13.528C776.125,484.941,770.295,491.004,764.465,497.068z"/>
		<path fill="#EED57E" d="M794.998,530.961c-5.203-5.52-7.807-8.281-13.008-13.805c6.191-6.471,12.383-12.936,18.576-19.404
			c5.367,5.326,8.053,7.99,13.422,13.316C807.656,517.699,801.328,524.33,794.998,530.961z"/>
		<path fill="#EED57E" d="M810.275,547.16c-5.434-5.76-8.152-8.637-13.582-14.398c6.35-6.652,12.697-13.307,19.045-19.957
			c5.602,5.557,8.4,8.336,14.002,13.895C823.25,533.518,816.764,540.34,810.275,547.16z"/>
		<path fill="#EED57E" d="M759.16,535.283c-5.102-5.836-7.65-8.754-12.75-14.596c5.855-6.09,11.709-12.182,17.563-18.271
			c5.266,5.641,7.896,8.463,13.168,14.1C771.145,522.771,765.15,529.025,759.16,535.283z"/>
		<path fill="#EED57E" d="M744.193,518.148c-5.094-5.842-7.639-8.766-12.73-14.613c5.686-5.896,11.373-11.791,17.061-17.686
			c5.266,5.645,7.895,8.469,13.158,14.111C755.854,506.023,750.023,512.086,744.193,518.148z"/>
		<path fill="#EED57E" d="M774.357,552.588c-5.025-5.734-7.537-8.604-12.559-14.344c5.924-6.182,11.846-12.369,17.766-18.557
			c5.182,5.547,7.773,8.322,12.959,13.869C786.469,539.902,780.412,546.244,774.357,552.588z"/>
		<path fill="#EED57E" d="M735.461,560.021c-8.846-11.043-17.678-22.104-26.494-33.172c6.451-6.689,12.906-13.379,19.357-20.066
			c9.172,10.658,18.35,21.305,27.535,31.947C749.061,545.828,742.258,552.926,735.461,560.021z"/>
		<path fill="#EED57E" d="M749.588,578.535c-4.811-5.988-7.213-8.984-12.016-14.982c7-7.311,14-14.621,20.998-21.934
			c4.994,5.773,7.49,8.66,12.486,14.428C763.9,563.541,756.742,571.037,749.588,578.535z"/>
		<path fill="#EED57E" d="M763.723,596.092c-5.031-6.236-7.547-9.357-12.568-15.604c14.355-15.041,28.703-30.082,43.057-45.123
			c5.408,5.787,8.115,8.68,13.523,14.465C793.064,565.252,778.393,580.674,763.723,596.092z"/>
		<path fill="#EED57E" d="M706.816,479.492c-5.063-5.88-7.59-8.821-12.648-14.709c6.342-6.506,9.51-9.758,15.85-16.26
			c5.234,5.678,7.852,8.516,13.09,14.191C717.678,468.31,712.248,473.901,706.816,479.492z"/>
		<path fill="#EED57E" d="M687.314,499.576c-4.85-6.129-7.273-9.195-12.119-15.332c6.342-6.501,9.512-9.751,15.85-16.257
			c5.023,5.926,7.535,8.889,12.564,14.81C698.176,488.389,692.746,493.982,687.314,499.576z"/>
		<path fill="#EED57E" d="M673.088,481.578c-4.844-6.136-7.262-9.204-12.098-15.347c6.131-6.261,9.197-9.39,15.326-15.649
			c5.018,5.934,7.525,8.898,12.545,14.827C682.555,471.878,679.396,475.112,673.088,481.578z"/>
		<path fill="#EED57E" d="M701.129,517.826c-4.779-6.021-7.166-9.035-11.936-15.064c5.613-5.783,11.229-11.564,16.838-17.35
			c4.947,5.82,7.422,8.73,12.371,14.549C712.646,505.918,706.887,511.871,701.129,517.826z"/>
		<path fill="#EED57E" d="M767.09,384.932c-5.809-4.809-8.717-7.213-14.531-12.018c3.838-3.919,5.754-5.877,9.592-9.795
			c5.926,4.675,8.891,7.015,14.807,11.697C773.01,378.861,771.039,380.887,767.09,384.932z"/>
		<path fill="#EED57E" d="M784.76,399.582c-6.055-5.027-9.084-7.537-15.145-12.559c3.967-4.068,5.949-6.102,9.918-10.172
			c6.174,4.889,9.258,7.334,15.426,12.225C790.879,393.279,788.84,395.381,784.76,399.582z"/>
		<path fill="#EED57E" d="M801.773,413.732c-5.795-4.826-8.691-7.236-14.494-12.057c4.102-4.223,6.15-6.336,10.248-10.557
			c5.908,4.689,8.859,7.037,14.764,11.736C808.084,407.205,805.979,409.383,801.773,413.732z"/>
		<path fill="#EED57E" d="M725.596,382.879c-7.115-6.396-14.232-12.79-21.354-19.18c5.648-5.71,8.471-8.564,14.115-14.272
			c7.348,6.128,14.689,12.26,22.027,18.394C734.471,373.846,731.514,376.855,725.596,382.879z"/>
		<path fill="#EED57E" d="M500.94,216.454c-8.048-8.661-16.096-17.321-24.142-25.986c2.922-2.524,4.386-3.786,7.308-6.311
			c8.37,8.291,16.742,16.579,25.114,24.869C505.907,211.998,504.253,213.482,500.94,216.454z"/>
		<path fill="#EED57E" d="M689.963,419.152c-7.703-8.229-15.408-16.459-23.107-24.691c5.854-5.91,8.781-8.865,14.637-14.775
			c7.977,7.906,15.957,15.814,23.934,23.725C699.24,409.709,696.15,412.855,689.963,419.152z"/>
		<path fill="#EED57E" d="M497.642,232.788c-9.812-11.633-19.618-23.27-29.421-34.911c2.924-2.523,4.384-3.787,7.307-6.313
			c10.22,11.166,20.441,22.327,30.664,33.487C502.772,228.146,501.063,229.694,497.642,232.788z"/>
		<path fill="#EED57E" d="M671.813,437.633c-9.908-11.543-19.805-23.094-29.691-34.65c5.74-5.777,8.611-8.666,14.35-14.443
			c10.264,11.121,20.531,22.238,30.805,33.352C681.092,428.186,677.996,431.336,671.813,437.633z"/>
		<path fill="#EED57E" d="M477.082,228.887c-5.923-7.771-11.843-15.547-17.756-23.327c3.177-2.744,4.766-4.115,7.942-6.858
			c6.201,7.449,12.41,14.894,18.615,22.339C482.363,224.18,480.602,225.749,477.082,228.887z"/>
		<path fill="#EED57E" d="M513.672,276.812c-5.938-7.756-11.872-15.52-17.799-23.284c3.882-3.555,5.822-5.332,9.706-8.888
			c6.212,7.441,12.429,14.877,18.648,22.312C520.006,270.896,517.895,272.867,513.672,276.812z"/>
		<path fill="#EED57E" d="M493.84,250.865c-4.913-6.436-9.822-12.873-14.729-19.312c3.561-3.185,5.342-4.777,8.903-7.963
			c5.145,6.167,10.287,12.335,15.435,18.5C499.607,245.601,497.682,247.354,493.84,250.865z"/>
		<path fill="#EED57E" d="M596.409,384.246c-27.176-35.064-54.231-70.223-81.211-105.438c4.251-3.979,6.378-5.968,10.627-9.946
			c28.252,33.764,56.561,67.475,84.94,101.127C605.025,375.691,602.151,378.543,596.409,384.246z"/>
		<path fill="#EED57E" d="M709.564,373.469c5.338,4.857,8.004,7.287,13.342,12.146c-6.186,6.295-9.277,9.445-15.463,15.74
			c-5.162-5.064-7.738-7.598-12.9-12.662C700.551,382.604,703.553,379.559,709.564,373.469z"/>
		<path fill="#EED57E" d="M693.785,359.119c5.584,5.074,8.377,7.614,13.957,12.693c-5.984,6.064-8.975,9.092-14.959,15.152
			c-5.393-5.293-8.092-7.939-13.49-13.236C685.094,367.885,687.99,364.962,693.785,359.119z"/>
		<path fill="#EED57E" d="M677.395,344.227c5.344,4.852,8.016,7.279,13.355,12.133c-5.752,5.798-8.631,8.695-14.389,14.493
			c-5.162-5.064-7.742-7.599-12.904-12.662C669.031,352.604,671.818,349.811,677.395,344.227z"/>
		<path fill="#EED57E" d="M662.209,330.442c5.346,4.851,8.02,7.276,13.363,12.128c-5.551,5.557-8.324,8.336-13.875,13.893
			c-5.162-5.063-7.744-7.595-12.904-12.66C654.158,338.461,656.842,335.787,662.209,330.442z"/>
		<path fill="#EED57E" d="M645.195,315.014c5.348,4.849,8.021,7.271,13.369,12.122c-5.318,5.285-7.977,7.931-13.293,13.216
			c-5.162-5.063-7.743-7.594-12.907-12.658C637.497,322.622,640.065,320.086,645.195,315.014z"/>
		<path fill="#EED57E" d="M629.997,301.248c5.35,4.845,8.026,7.268,13.375,12.114c-5.105,5.042-7.66,7.563-12.767,12.605
			c-5.16-5.063-7.743-7.596-12.904-12.659C622.617,308.484,625.077,306.072,629.997,301.248z"/>
		<path fill="#EED57E" d="M612.965,285.834c5.354,4.843,8.033,7.264,13.383,12.109c-4.868,4.765-7.304,7.148-12.17,11.914
			c-5.165-5.063-7.746-7.593-12.91-12.655C605.947,292.653,608.288,290.38,612.965,285.834z"/>
		<path fill="#EED57E" d="M597.756,272.078c5.355,4.84,8.033,7.262,13.385,12.104c-4.652,4.519-6.979,6.777-11.634,11.294
			c-5.162-5.062-7.744-7.593-12.909-12.656C591.062,278.523,593.293,276.373,597.756,272.078z"/>
		<path fill="#EED57E" d="M580.713,256.677c5.356,4.839,8.036,7.26,13.392,12.1c-4.41,4.237-6.617,6.357-11.028,10.594
			c-5.162-5.061-7.746-7.592-12.91-12.653C574.384,262.7,576.494,260.691,580.713,256.677z"/>
		<path fill="#EED57E" d="M565.493,242.933c5.358,4.838,8.037,7.256,13.396,12.095c-4.192,3.985-6.292,5.979-10.483,9.963
			c-5.164-5.062-7.746-7.593-12.909-12.654C559.493,248.574,561.495,246.694,565.493,242.933z"/>
		<path fill="#EED57E" d="M548.436,227.544c5.849,5.276,8.772,7.914,14.619,13.189c-3.963,3.721-5.946,5.582-9.907,9.303
			c-5.637-5.521-8.452-8.28-14.087-13.802C542.812,232.759,544.686,231.02,548.436,227.544z"/>
		<path fill="#EED57E" d="M533.206,213.812c5.361,4.833,8.043,7.251,13.404,12.086c-3.726,3.445-5.586,5.167-9.31,8.612
			c-5.164-5.061-7.747-7.592-12.913-12.652C527.915,218.639,529.678,217.03,533.206,213.812z"/>
		<path fill="#EED57E" d="M516.141,198.433c5.852,5.271,8.777,7.907,14.628,13.182c-3.491,3.177-5.238,4.765-8.729,7.942
			c-5.635-5.52-8.453-8.278-14.088-13.799C511.227,202.829,512.866,201.362,516.141,198.433z"/>
		<path fill="#EED57E" d="M492.367,177.022c7.317,6.587,14.631,13.175,21.944,19.763c-3.246,2.899-4.87,4.349-8.119,7.248
			c-7.045-6.9-14.09-13.8-21.133-20.698C487.981,180.811,489.445,179.548,492.367,177.022z"/>
		<path fill="#EED57E" d="M650.986,417.533c6.266,7.389,12.533,14.773,18.807,22.15c-5.6,5.705-11.201,11.408-16.803,17.111
			c-6.023-7.674-12.037-15.357-18.044-23.043C641.363,427.266,644.57,424.021,650.986,417.533z"/>
		<path fill="#EED57E" d="M612.907,372.527c6.248,7.402,12.504,14.803,18.76,22.199c-6.095,6.111-9.143,9.17-15.237,15.283
			c-5.997-7.701-11.987-15.408-17.968-23.121C604.241,381.145,607.127,378.271,612.907,372.527z"/>
		<path fill="#EED57E" d="M633.813,397.26c5.184,6.127,10.371,12.254,15.562,18.375c-6.389,6.453-9.585,9.686-15.973,16.139
			c-4.978-6.371-9.949-12.746-14.92-19.125C624.614,406.494,627.68,403.416,633.813,397.26z"/>
	</g>
	<polygon fill="#EED57E" points="876.5,131.5 826.5,131.5 776.5,131.5 726.5,131.5 726.5,181.5 726.5,231.5 776.5,231.5 
		826.5,231.5 876.5,231.5 926.5,281.5 926.5,231.5 926.5,181.5 926.5,131.5 	"/>
</g>
<g id="图层_2" display="none">
	<rect x="-228" y="41" display="inline" fill="#C6643B" width="54" height="54"/>
	<rect x="-153" y="41" display="inline" fill="#0B090A" width="54" height="54"/>
	<rect x="-78" y="41" display="inline" fill="#643525" width="54" height="54"/>
	<rect x="-228" y="119" display="inline" fill="#EED57E" width="54" height="54"/>
	<rect x="-153" y="119" display="inline" fill="#36221A" width="54" height="54"/>
	<rect x="-78" y="119" display="inline" fill="#36221A" width="54" height="54"/>
	<rect x="-228" y="197" display="inline" fill="#6FBB78" width="54" height="54"/>
	<rect x="-153" y="197" display="inline" fill="#405FA2" width="54" height="54"/>
	<rect x="-78" y="197" display="inline" fill="#33573C" width="54" height="54"/>
	<rect x="-228" y="275" display="inline" fill="#25365C" width="54" height="54"/>
	<rect x="-137" y="439" display="inline" fill="#194247" width="54" height="54"/>
	<rect x="-62" y="439" display="inline" fill="#DC7546" width="54" height="54"/>
	<rect x="-212" y="515" display="inline" fill="#81FFFF" width="54" height="54"/>
	<rect x="-137" y="515" display="inline" fill="#AF7E89" width="54" height="54"/>
	<rect x="-62" y="515" display="inline" fill="#111F0E" width="54" height="54"/>
	<rect x="-212" y="592" display="inline" fill="#9F2914" width="54" height="54"/>
	<rect x="-137" y="592" display="inline" fill="#FFC83A" width="54" height="54"/>
	<rect x="-62" y="592" display="inline" fill="#232A1C" width="54" height="54"/>
	<rect x="-212" y="669" display="inline" fill="#65CBE3" width="54" height="54"/>
	<rect x="-137" y="669" display="inline" fill="#17384E" width="54" height="54"/>
	<rect x="-62" y="669" display="inline" fill="#DC7546" width="54" height="54"/>
	<g display="inline">
		<path fill="#C6643B" d="M744.028-78.867c3.125-3.125,3.023-8.09-0.225-11.088c-143.102-132.199-285.169-265.516-429.25-396.651
			c-3.272-2.976-8.494-2.821-11.045-0.27c-18.742,18.745-37.486,37.489-56.23,56.231c-2.365,2.364-2.621,7.606,0.25,10.893
			C375.932-273.013,509.425-130.846,639.009,14.84c2.939,3.311,7.852,3.461,10.977,0.338
			C681.333-16.17,712.677-47.523,744.028-78.867z"/>
		<path fill="#0B090A" d="M310.321-455.505c-1.279,1.279-4.264,0.466-6.648-1.834c-2.881-2.777-4.321-4.165-7.202-6.941
			c-2.386-2.3-3.307-5.178-2.073-6.411c1.34-1.34,1.999-2,3.413-3.415c1.302-1.302,4.426-0.625,6.854,1.632
			c2.932,2.725,4.396,4.086,7.328,6.812c2.428,2.258,3.211,5.275,1.865,6.62C312.397-457.58,311.712-456.896,310.321-455.505z"/>
		<path fill="#0B090A" d="M329.856-436.854c-1.336,1.335-4.366,0.564-6.75-1.737c-2.879-2.778-4.318-4.167-7.197-6.944
			c-2.385-2.301-3.258-5.228-1.969-6.518c1.402-1.401,2.092-2.092,3.564-3.564c1.355-1.355,4.516-0.715,6.941,1.544
			c2.93,2.728,4.395,4.091,7.322,6.819c2.426,2.26,3.169,5.317,1.771,6.715C332.021-439.02,331.307-438.304,329.856-436.854z"/>
		<path fill="#0B090A" d="M317.302-397.621c-1.715,1.659-4.738,0.849-7.056-1.51c-2.797-2.848-4.194-4.272-6.989-7.121
			c-2.316-2.359-3.09-5.342-1.416-6.974c1.818-1.772,2.836-2.769,5.232-5.121c2.207-2.165,6.02-2.188,8.363,0.154
			c2.83,2.827,4.244,4.24,7.074,7.067c2.344,2.342,2.334,6.166,0.107,8.337C320.2-400.43,319.163-399.423,317.302-397.621z"/>
		<path fill="#0B090A" d="M317.042-378.054c-1.132,1.069-3.887-0.009-6.137-2.424c-2.717-2.915-4.074-4.373-6.787-7.289
			c-2.247-2.415-3.189-5.209-2.123-6.226c1.159-1.104,1.729-1.646,2.984-2.848c1.157-1.106,4.087-0.207,6.395,2.16
			c2.785,2.857,4.178,4.285,6.965,7.142c2.309,2.367,3.076,5.341,1.859,6.497C318.874-379.785,318.271-379.216,317.042-378.054z"/>
		<path fill="#0B090A" d="M334.861-359.219c-1.204,1.132-4.024,0.104-6.28-2.311c-2.723-2.915-4.082-4.372-6.803-7.287
			c-2.253-2.415-3.141-5.26-1.998-6.339c1.242-1.172,1.853-1.749,3.188-3.015c1.229-1.165,4.215-0.306,6.525,2.06
			c2.789,2.857,4.185,4.285,6.975,7.142c2.313,2.366,3.031,5.381,1.744,6.595C336.814-361.054,336.17-360.449,334.861-359.219z"/>
		<path fill="#0B090A" d="M352.718-340.387c-1.275,1.195-4.154,0.216-6.416-2.198c-2.729-2.915-4.094-4.372-6.82-7.287
			c-2.259-2.415-3.092-5.31-1.876-6.451c1.321-1.241,1.972-1.85,3.38-3.179c1.297-1.223,4.335-0.407,6.648,1.959
			c2.793,2.856,4.189,4.285,6.984,7.141c2.314,2.366,2.988,5.422,1.637,6.694C354.785-342.325,354.103-341.685,352.718-340.387z"/>
		<path fill="#0B090A" d="M371.294-320.831c-1.344,1.259-4.283,0.333-6.549-2.082c-2.734-2.914-4.102-4.371-6.835-7.285
			c-2.265-2.414-3.042-5.361-1.755-6.567c1.398-1.311,2.09-1.958,3.572-3.353c1.363-1.284,4.45-0.509,6.766,1.857
			c2.797,2.856,4.195,4.283,6.992,7.14c2.316,2.366,2.947,5.465,1.529,6.797C373.476-322.875,372.753-322.199,371.294-320.831z"/>
		<path fill="#0B090A" d="M389.214-302.001c-1.408,1.322-4.402,0.445-6.672-1.969c-2.74-2.914-4.109-4.373-6.848-7.287
			c-2.27-2.414-2.999-5.408-1.645-6.677c1.471-1.379,2.195-2.061,3.746-3.519c1.426-1.342,4.563-0.608,6.881,1.758
			c2.798,2.856,4.196,4.285,6.996,7.142c2.318,2.366,2.907,5.504,1.43,6.895C391.499-304.147,390.743-303.437,389.214-302.001z"/>
		<path fill="#0B090A" d="M407.157-283.171c-1.47,1.385-4.518,0.559-6.791-1.855c-2.744-2.914-4.115-4.373-6.859-7.287
			c-2.271-2.414-2.953-5.459-1.535-6.791c1.541-1.446,2.303-2.162,3.916-3.682c1.486-1.399,4.664-0.708,6.983,1.658
			c2.801,2.856,4.203,4.285,7.005,7.141c2.32,2.367,2.869,5.546,1.334,6.994C409.544-285.419,408.755-284.675,407.157-283.171z"/>
		<path fill="#0B090A" d="M425.813-263.615c-1.532,1.448-4.632,0.674-6.907-1.74c-2.748-2.914-4.121-4.371-6.869-7.285
			c-2.275-2.414-2.908-5.514-1.426-6.909c1.609-1.517,2.406-2.267,4.086-3.853c1.545-1.46,4.766-0.811,7.088,1.555
			c2.803,2.857,4.204,4.285,7.008,7.141c2.322,2.367,2.832,5.588,1.24,7.098C428.302-265.97,427.478-265.189,425.813-263.615z"/>
		<path fill="#0B090A" d="M443.796-244.783c-1.592,1.512-4.738,0.787-7.018-1.627c-2.75-2.914-4.125-4.373-6.875-7.287
			c-2.279-2.414-2.866-5.563-1.324-7.021c1.674-1.584,2.504-2.369,4.242-4.018c1.602-1.518,4.861-0.91,7.186,1.456
			c2.804,2.856,4.205,4.284,7.01,7.142c2.324,2.365,2.799,5.631,1.152,7.197C446.38-247.238,445.524-246.425,443.796-244.783z"/>
		<path fill="#0B090A" d="M461.79-225.947c-1.647,1.574-4.84,0.9-7.121-1.516c-2.753-2.914-4.13-4.373-6.883-7.287
			c-2.279-2.416-2.822-5.615-1.223-7.135c1.738-1.654,2.601-2.473,4.398-4.186c1.654-1.574,4.953-1.01,7.277,1.357
			c2.805,2.857,4.209,4.285,7.014,7.143c2.324,2.367,2.762,5.672,1.063,7.297C464.47-228.507,463.581-227.658,461.79-225.947z"/>
		<path fill="#0B090A" d="M480.49-206.384c-1.707,1.639-4.949,1.016-7.232-1.398c-2.754-2.916-4.132-4.375-6.886-7.291
			c-2.282-2.414-2.777-5.666-1.119-7.252c1.803-1.723,2.697-2.578,4.554-4.357c1.709-1.637,5.047-1.111,7.371,1.256
			c2.807,2.855,4.209,4.285,7.016,7.141c2.326,2.367,2.729,5.717,0.975,7.402C483.264-209.052,482.344-208.167,480.49-206.384z"/>
		<path fill="#0B090A" d="M336.291-378.471c-1.76,1.692-4.837,0.921-7.156-1.438c-2.8-2.848-4.2-4.271-6.999-7.119
			c-2.318-2.359-3.041-5.382-1.318-7.047c1.872-1.809,2.911-2.817,5.334-5.178c2.229-2.172,6.041-2.2,8.385,0.142
			c2.83,2.827,4.247,4.242,7.076,7.069c2.344,2.342,2.332,6.17,0.086,8.348C339.259-381.327,338.203-380.309,336.291-378.471z"/>
		<path fill="#0B090A" d="M354.589-360.03c-1.801,1.724-4.925,0.99-7.246-1.369c-2.803-2.848-4.204-4.27-7.006-7.118
			c-2.32-2.359-2.997-5.419-1.23-7.116c1.918-1.844,2.977-2.864,5.418-5.232c2.248-2.179,6.063-2.21,8.406,0.132
			c2.83,2.827,4.244,4.241,7.074,7.068c2.344,2.342,2.331,6.174,0.07,8.359C357.618-362.933,356.546-361.903,354.589-360.03z"/>
		<path fill="#0B090A" d="M372.899-341.591c-1.838,1.756-5.009,1.061-7.332-1.298c-2.806-2.848-4.207-4.271-7.012-7.119
			c-2.322-2.359-2.957-5.457-1.15-7.186c1.963-1.878,3.038-2.911,5.497-5.285c2.263-2.186,6.077-2.218,8.421,0.125
			c2.829,2.828,4.244,4.241,7.072,7.069c2.344,2.342,2.332,6.175,0.059,8.366C375.983-344.54,374.896-343.499,372.899-341.591z"/>
		<path fill="#0B090A" d="M391.923-322.441c-1.875,1.789-5.087,1.132-7.412-1.227c-2.809-2.848-4.212-4.271-7.019-7.118
			c-2.325-2.359-2.917-5.496-1.071-7.258c2.004-1.914,3.095-2.958,5.566-5.34c2.275-2.192,6.09-2.227,8.434,0.116
			c2.828,2.828,4.243,4.242,7.072,7.069c2.344,2.342,2.33,6.174,0.047,8.372C395.06-325.439,393.958-324.384,391.923-322.441z"/>
		<path fill="#0B090A" d="M410.249-304.002c-1.906,1.82-5.156,1.202-7.484-1.157c-2.809-2.848-4.213-4.272-7.021-7.12
			c-2.327-2.359-2.881-5.533-1.002-7.326c2.042-1.948,3.146-3.005,5.629-5.394c2.284-2.199,6.096-2.233,8.439,0.109
			c2.83,2.828,4.244,4.24,7.074,7.068c2.344,2.342,2.332,6.176,0.041,8.38C413.437-307.047,412.321-305.979,410.249-304.002z"/>
		<path fill="#0B090A" d="M428.583-285.562c-1.936,1.852-5.225,1.271-7.553-1.088c-2.811-2.848-4.217-4.271-7.027-7.119
			c-2.328-2.359-2.846-5.571-0.934-7.396c2.076-1.983,3.193-3.052,5.682-5.447c2.291-2.205,6.104-2.241,8.447,0.102
			c2.83,2.828,4.245,4.244,7.074,7.071c2.344,2.342,2.33,6.175,0.035,8.385C431.813-288.652,430.688-287.574,428.583-285.562z"/>
		<path fill="#0B090A" d="M447.63-266.412c-1.967,1.885-5.291,1.342-7.621-1.018c-2.813-2.848-4.219-4.271-7.031-7.119
			c-2.328-2.358-2.809-5.609-0.865-7.467c2.109-2.02,3.236-3.1,5.73-5.502c2.297-2.212,6.109-2.248,8.453,0.094
			c2.828,2.828,4.242,4.244,7.072,7.072c2.343,2.342,2.33,6.174,0.032,8.391C450.903-269.552,449.767-268.459,447.63-266.412z"/>
		<path fill="#0B090A" d="M465.976-247.972c-1.993,1.916-5.353,1.412-7.684-0.945c-2.813-2.848-4.22-4.273-7.033-7.121
			c-2.33-2.358-2.776-5.647-0.807-7.537c2.141-2.053,3.279-3.146,5.777-5.555c2.299-2.219,6.111-2.252,8.455,0.092
			c2.828,2.828,4.242,4.24,7.071,7.068c2.344,2.344,2.33,6.172,0.031,8.396C469.287-251.158,468.142-250.054,465.976-247.972z"/>
		<path fill="#0B090A" d="M484.324-229.531c-2.02,1.947-5.412,1.482-7.744-0.877c-2.814-2.848-4.221-4.271-7.034-7.119
			c-2.331-2.359-2.744-5.688-0.747-7.607c2.17-2.088,3.317-3.193,5.816-5.611c2.301-2.225,6.111-2.256,8.455,0.088
			c2.83,2.828,4.244,4.24,7.072,7.068c2.344,2.344,2.332,6.172,0.031,8.402C487.674-232.763,486.518-231.648,484.324-229.531z"/>
		<path fill="#0B090A" d="M503.384-210.378c-2.047,1.982-5.475,1.555-7.806-0.805c-2.814-2.848-4.223-4.271-7.037-7.119
			c-2.33-2.359-2.711-5.727-0.688-7.682c2.199-2.123,3.357-3.242,5.857-5.668c2.301-2.232,6.112-2.26,8.456,0.084
			c2.83,2.828,4.244,4.24,7.072,7.068c2.344,2.342,2.33,6.168,0.029,8.406C506.769-213.662,505.606-212.533,503.384-210.378z"/>
		<path fill="#0B090A" d="M348.652-418.882c-1.388,1.388-4.458,0.659-6.842-1.644c-2.877-2.78-4.315-4.17-7.193-6.95
			c-2.384-2.302-3.213-5.271-1.87-6.614c1.46-1.459,2.18-2.18,3.707-3.707c1.406-1.406,4.6-0.803,7.024,1.459
			c2.927,2.73,4.392,4.097,7.317,6.828c2.424,2.262,3.128,5.356,1.681,6.803C350.903-421.133,350.159-420.389,348.652-418.882z"/>
		<path fill="#0B090A" d="M367.438-400.898c-1.438,1.439-4.55,0.75-6.931-1.553c-2.876-2.781-4.314-4.171-7.189-6.952
			c-2.383-2.304-3.17-5.316-1.774-6.712c1.517-1.516,2.265-2.266,3.845-3.846c1.455-1.455,4.686-0.885,7.107,1.379
			c2.925,2.732,4.387,4.1,7.311,6.833c2.422,2.264,3.09,5.394,1.594,6.89C369.773-403.234,369.001-402.462,367.438-400.898z"/>
		<path fill="#0B090A" d="M386.937-382.212c-1.492,1.492-4.645,0.843-7.025-1.462c-2.873-2.783-4.311-4.172-7.186-6.955
			c-2.381-2.305-3.124-5.361-1.676-6.81c1.574-1.574,2.352-2.352,3.987-3.987c1.505-1.505,4.769-0.971,7.189,1.294
			c2.923,2.735,4.384,4.102,7.306,6.837c2.42,2.266,3.052,5.435,1.506,6.98C389.359-384.635,388.557-383.833,386.937-382.212z"/>
		<path fill="#0B090A" d="M405.703-364.21c-1.542,1.542-4.733,0.934-7.112-1.373c-2.873-2.784-4.309-4.176-7.182-6.959
			c-2.381-2.306-3.084-5.402-1.584-6.902c1.629-1.629,2.434-2.436,4.12-4.123c1.553-1.553,4.851-1.05,7.269,1.217
			c2.921,2.737,4.382,4.105,7.301,6.843c2.419,2.268,3.016,5.469,1.424,7.062C408.208-366.714,407.378-365.885,405.703-364.21z"/>
		<path fill="#0B090A" d="M424.461-346.198c-1.591,1.591-4.819,1.02-7.198-1.287c-2.871-2.785-4.307-4.178-7.18-6.962
			c-2.379-2.307-3.043-5.443-1.494-6.992c1.684-1.683,2.518-2.517,4.256-4.254c1.6-1.6,4.928-1.129,7.346,1.139
			c2.918,2.738,4.377,4.107,7.295,6.847c2.418,2.269,2.979,5.506,1.342,7.145C427.046-348.783,426.188-347.926,424.461-346.198z"/>
		<path fill="#0B090A" d="M443.935-327.488c-1.642,1.641-4.909,1.112-7.287-1.195c-2.871-2.786-4.307-4.181-7.179-6.966
			c-2.378-2.307-2.999-5.484-1.399-7.084c1.738-1.738,2.6-2.601,4.389-4.39c1.648-1.647,5.01-1.21,7.426,1.059
			c2.916,2.74,4.375,4.111,7.292,6.852c2.415,2.27,2.944,5.541,1.259,7.226C446.603-330.155,445.717-329.271,443.935-327.488z"/>
		<path fill="#0B090A" d="M462.681-309.463c-1.689,1.689-4.996,1.196-7.375-1.112c-2.87-2.787-4.305-4.18-7.176-6.966
			c-2.377-2.308-2.959-5.525-1.311-7.174c1.791-1.791,2.68-2.68,4.518-4.519c1.693-1.692,5.088-1.287,7.502,0.984
			c2.916,2.741,4.373,4.113,7.289,6.854c2.414,2.271,2.908,5.575,1.178,7.305C465.425-312.209,464.515-311.298,462.681-309.463z"/>
		<path fill="#0B090A" d="M481.42-291.433c-1.736,1.736-5.08,1.281-7.457-1.027c-2.869-2.787-4.305-4.18-7.175-6.967
			c-2.378-2.309-2.921-5.566-1.225-7.262c1.843-1.843,2.757-2.758,4.645-4.646c1.737-1.737,5.165-1.363,7.579,0.909
			c2.914,2.743,4.369,4.114,7.283,6.857c2.414,2.272,2.875,5.609,1.1,7.384C484.242-294.256,483.307-293.32,481.42-291.433z"/>
		<path fill="#0B090A" d="M500.876-272.705c-1.785,1.785-5.169,1.368-7.546-0.941c-2.869-2.787-4.303-4.182-7.172-6.969
			c-2.377-2.31-2.881-5.604-1.135-7.35c1.896-1.896,2.836-2.839,4.773-4.777c1.783-1.783,5.242-1.442,7.655,0.83
			c2.914,2.744,4.371,4.117,7.283,6.861c2.414,2.272,2.844,5.643,1.023,7.463C503.78-275.609,502.815-274.644,500.876-272.705z"/>
		<path fill="#0B090A" d="M519.608-254.667c-1.832,1.832-5.252,1.452-7.627-0.857c-2.869-2.788-4.305-4.182-7.174-6.971
			c-2.377-2.309-2.844-5.644-1.051-7.436c1.947-1.947,2.916-2.914,4.902-4.9c1.826-1.827,5.314-1.516,7.729,0.758
			c2.912,2.744,4.369,4.115,7.281,6.859c2.412,2.273,2.809,5.678,0.945,7.541C522.589-257.647,521.599-256.658,519.608-254.667z"/>
		<path fill="#0B090A" d="M538.337-236.626c-1.879,1.877-5.334,1.535-7.711-0.775c-2.867-2.789-4.303-4.182-7.172-6.971
			c-2.375-2.309-2.803-5.681-0.963-7.52c1.998-1.998,2.99-2.992,5.023-5.025c1.871-1.871,5.389-1.592,7.801,0.682
			c2.912,2.746,4.369,4.119,7.281,6.865c2.412,2.273,2.777,5.705,0.869,7.613C541.394-239.683,540.378-238.667,538.337-236.626z"/>
		<path fill="#0B090A" d="M322.503-466.271c-1.813,1.812-5.053,1.253-7.489-0.996c-3.235-2.987-4.853-4.481-8.089-7.467
			c-2.438-2.249-3.18-5.307-1.395-7.092c0.215-0.215,0.325-0.324,0.546-0.545c1.827-1.828,5.552-1.754,8.005,0.48
			c3.256,2.966,4.883,4.449,8.137,7.417c2.451,2.235,2.69,5.797,0.838,7.65C322.831-466.6,322.722-466.489,322.503-466.271z"/>
		<path fill="#0B090A" d="M342.405-447.988c-1.843,1.842-5.116,1.316-7.55-0.937c-3.231-2.991-4.849-4.486-8.081-7.475
			c-2.435-2.251-3.139-5.348-1.322-7.165c0.22-0.219,0.33-0.33,0.555-0.554c1.857-1.857,5.592-1.793,8.041,0.444
			c3.252,2.971,4.877,4.457,8.127,7.429c2.447,2.238,2.674,5.812,0.791,7.694C342.739-448.324,342.628-448.211,342.405-447.988z"/>
		<path fill="#0B090A" d="M362.284-429.686c-1.871,1.872-5.176,1.377-7.607-0.877c-3.229-2.994-4.844-4.49-8.074-7.483
			c-2.432-2.253-3.098-5.387-1.252-7.233c0.224-0.223,0.335-0.334,0.563-0.562c1.886-1.886,5.63-1.832,8.076,0.408
			c3.248,2.975,4.872,4.464,8.119,7.44c2.444,2.241,2.656,5.827,0.747,7.736C362.625-430.026,362.511-429.912,362.284-429.686z"/>
		<path fill="#0B090A" d="M382.881-410.684c-1.901,1.901-5.237,1.439-7.666-0.817c-3.226-2.997-4.84-4.496-8.067-7.492
			c-2.43-2.256-3.061-5.424-1.184-7.302c0.227-0.227,0.342-0.341,0.572-0.572c1.914-1.914,5.667-1.867,8.109,0.376
			c3.244,2.979,4.867,4.467,8.11,7.447c2.442,2.244,2.642,5.844,0.704,7.78C383.227-411.029,383.11-410.913,382.881-410.684z"/>
		<path fill="#0B090A" d="M678.136-136.01c-2.262,2.264-6.031,2.229-8.451-0.037c-3.213-3.008-4.82-4.512-8.033-7.521
			c-2.42-2.266-2.6-5.883-0.357-8.125c0.271-0.271,0.404-0.408,0.676-0.68c2.252-2.25,6.096-2.295,8.525-0.039
			c3.229,2.994,4.84,4.492,8.068,7.486c2.432,2.256,2.525,5.961,0.256,8.23C678.546-136.422,678.409-136.283,678.136-136.01z"/>
		<path fill="#0B090A" d="M697.913-117.605c-2.287,2.287-6.082,2.283-8.502,0.018c-3.215-3.008-4.822-4.512-8.037-7.52
			c-2.422-2.266-2.574-5.91-0.309-8.178c0.273-0.273,0.41-0.408,0.684-0.684c2.273-2.273,6.127-2.322,8.559-0.068
			c3.229,2.994,4.842,4.49,8.07,7.482c2.432,2.254,2.52,5.965,0.227,8.256C698.329-118.021,698.19-117.883,697.913-117.605z"/>
		<path fill="#0B090A" d="M718.437-98.533c-2.313,2.314-6.141,2.344-8.563,0.08c-3.217-3.006-4.824-4.51-8.041-7.518
			c-2.422-2.264-2.545-5.938-0.254-8.23c0.277-0.275,0.416-0.414,0.693-0.691c2.295-2.295,6.154-2.354,8.586-0.1
			c3.23,2.99,4.846,4.486,8.076,7.479c2.434,2.252,2.516,5.969,0.201,8.283C718.856-98.951,718.716-98.813,718.437-98.533z"/>
		<path fill="#0B090A" d="M738.239-80.148c-2.338,2.34-6.197,2.398-8.621,0.135c-3.219-3.004-4.828-4.506-8.047-7.512
			c-2.422-2.262-2.518-5.965-0.201-8.281c0.279-0.281,0.418-0.42,0.699-0.699c2.318-2.32,6.186-2.387,8.621-0.135
			c3.232,2.988,4.85,4.484,8.084,7.473c2.436,2.252,2.508,5.975,0.17,8.313C738.661-80.572,738.521-80.43,738.239-80.148z"/>
		<path fill="#0B090A" d="M402.724-392.342c-1.93,1.929-5.296,1.497-7.723-0.762c-3.224-3-4.836-4.499-8.06-7.497
			c-2.429-2.258-3.025-5.46-1.12-7.366c0.23-0.23,0.347-0.346,0.581-0.581c1.94-1.94,5.7-1.902,8.142,0.344
			c3.24,2.981,4.859,4.473,8.1,7.456c2.439,2.246,2.629,5.857,0.666,7.819C403.073-392.693,402.956-392.575,402.724-392.342z"/>
		<path fill="#0B090A" d="M423.284-373.306c-1.956,1.957-5.355,1.557-7.781-0.704c-3.221-3.002-4.83-4.502-8.053-7.503
			c-2.426-2.26-2.988-5.498-1.055-7.431c0.233-0.233,0.351-0.351,0.588-0.588c1.967-1.967,5.734-1.935,8.173,0.313
			c3.237,2.985,4.857,4.477,8.095,7.463c2.438,2.249,2.615,5.869,0.627,7.857C423.638-373.66,423.521-373.542,423.284-373.306z"/>
		<path fill="#0B090A" d="M443.095-354.933c-1.981,1.982-5.41,1.611-7.834-0.651c-3.219-3.004-4.826-4.506-8.047-7.509
			c-2.424-2.261-2.954-5.53-0.994-7.49c0.236-0.237,0.355-0.356,0.596-0.597c1.99-1.991,5.766-1.965,8.201,0.284
			c3.235,2.987,4.854,4.48,8.088,7.469c2.436,2.25,2.604,5.881,0.592,7.893C443.454-355.292,443.335-355.172,443.095-354.933z"/>
		<path fill="#0B090A" d="M462.892-336.546c-2.007,2.007-5.463,1.665-7.886-0.599c-3.217-3.005-4.825-4.509-8.042-7.514
			c-2.424-2.263-2.921-5.563-0.936-7.548c0.24-0.24,0.359-0.361,0.604-0.604c2.014-2.015,5.797-1.996,8.23,0.255
			c3.233,2.99,4.85,4.485,8.082,7.476c2.434,2.252,2.594,5.891,0.559,7.926C463.258-336.91,463.134-336.789,462.892-336.546z"/>
		<path fill="#0B090A" d="M483.414-317.469c-2.033,2.033-5.518,1.72-7.939-0.545c-3.215-3.007-4.824-4.511-8.04-7.518
			c-2.422-2.264-2.889-5.597-0.877-7.609c0.243-0.243,0.365-0.366,0.611-0.612c2.039-2.039,5.827-2.026,8.261,0.227
			c3.23,2.992,4.844,4.487,8.074,7.479c2.434,2.253,2.584,5.901,0.527,7.959C483.783-317.837,483.658-317.714,483.414-317.469z"/>
		<path fill="#0B090A" d="M503.192-299.063c-2.057,2.057-5.572,1.771-7.993-0.494c-3.213-3.008-4.82-4.513-8.035-7.521
			c-2.422-2.265-2.857-5.629-0.82-7.665c0.246-0.246,0.367-0.369,0.617-0.618c2.061-2.062,5.855-2.055,8.287,0.2
			c3.229,2.994,4.843,4.49,8.071,7.484c2.432,2.255,2.578,5.91,0.498,7.99C503.565-299.436,503.44-299.311,503.192-299.063z"/>
		<path fill="#0B090A" d="M522.962-280.648c-2.08,2.08-5.621,1.822-8.041-0.443c-3.213-3.01-4.82-4.514-8.033-7.523
			c-2.42-2.266-2.826-5.658-0.766-7.719c0.25-0.249,0.373-0.376,0.625-0.627c2.084-2.083,5.881-2.082,8.311,0.174
			c3.229,2.995,4.842,4.494,8.07,7.489c2.43,2.256,2.566,5.916,0.465,8.018C523.339-281.027,523.214-280.9,522.962-280.648z"/>
		<path fill="#0B090A" d="M543.46-261.547c-2.104,2.104-5.678,1.877-8.096-0.39c-3.213-3.011-4.818-4.516-8.031-7.525
			c-2.418-2.268-2.795-5.691-0.709-7.777c0.252-0.251,0.375-0.376,0.629-0.631c2.105-2.105,5.914-2.11,8.344,0.146
			c3.227,2.996,4.838,4.494,8.064,7.49c2.43,2.256,2.561,5.924,0.436,8.049C543.841-261.929,543.714-261.801,543.46-261.547z"/>
		<path fill="#0B090A" d="M563.22-243.125c-2.127,2.127-5.727,1.928-8.146-0.34c-3.211-3.012-4.816-4.516-8.029-7.527
			c-2.418-2.267-2.764-5.719-0.656-7.826c0.256-0.255,0.381-0.383,0.637-0.641c2.127-2.127,5.938-2.136,8.367,0.121
			c3.227,2.996,4.838,4.494,8.064,7.492c2.428,2.256,2.557,5.93,0.41,8.074C563.608-243.511,563.478-243.382,563.22-243.125z"/>
		<path fill="#0B090A" d="M582.978-224.699c-2.15,2.15-5.777,1.979-8.195-0.289c-3.213-3.012-4.818-4.518-8.029-7.527
			c-2.42-2.268-2.736-5.748-0.605-7.881c0.258-0.256,0.385-0.387,0.645-0.645c2.148-2.148,5.965-2.164,8.393,0.094
			c3.227,2.996,4.838,4.494,8.064,7.492c2.428,2.256,2.545,5.936,0.379,8.102C583.366-225.091,583.237-224.958,582.978-224.699z"/>
		<path fill="#0B090A" d="M614.515-163.809c-2.057,2.057-5.684,1.861-8.051-0.439c-3.24-3.146-4.861-4.721-8.102-7.869
			c-2.367-2.299-2.648-5.834-0.633-7.85c2.207-2.207,3.307-3.307,5.537-5.537c2.039-2.039,5.703-1.885,8.105,0.381
			c3.289,3.098,4.936,4.648,8.225,7.748c2.402,2.264,2.641,5.842,0.564,7.918C617.888-167.184,616.767-166.061,614.515-163.809z"/>
		<path fill="#0B090A" d="M594.813-182.775c-2.01,2.01-5.596,1.773-7.963-0.525c-3.238-3.148-4.861-4.723-8.1-7.869
			c-2.367-2.301-2.688-5.796-0.721-7.763c2.154-2.152,3.227-3.225,5.408-5.406c1.992-1.994,5.623-1.807,8.025,0.457
			c3.289,3.1,4.934,4.648,8.223,7.748c2.402,2.264,2.676,5.809,0.643,7.842C598.106-186.07,597.011-184.975,594.813-182.775z"/>
		<path fill="#0B090A" d="M633.419-145.033c-2.115,2.113-5.76,1.959-8.137-0.35c-3.154-3.066-4.732-4.602-7.889-7.668
			c-2.375-2.311-2.617-5.867-0.545-7.939c2.252-2.252,3.375-3.373,5.645-5.645c2.09-2.09,5.764-1.965,8.176,0.309
			c3.203,3.02,4.807,4.529,8.01,7.547c2.412,2.273,2.621,5.863,0.494,7.992C636.86-148.475,635.716-147.33,633.419-145.033z"/>
		<path fill="#0B090A" d="M598.731-148.025c-2.176,2.176-5.928,2.105-8.262-0.227c-3.197-3.191-4.797-4.787-7.994-7.979
			c-2.334-2.332-2.414-6.068-0.262-8.221c2.355-2.355,3.502-3.502,5.766-5.766c2.07-2.07,5.662-1.844,8.023,0.463
			c3.23,3.156,4.848,4.734,8.078,7.891c2.361,2.307,2.602,5.887,0.496,7.992C602.276-151.57,601.112-150.406,598.731-148.025z"/>
		<path fill="#0B090A" d="M579.343-167.307c-2.148,2.148-5.887,2.066-8.223-0.264c-3.195-3.191-4.795-4.787-7.992-7.979
			c-2.334-2.332-2.426-6.057-0.301-8.182c2.326-2.324,3.453-3.451,5.674-5.672c2.029-2.029,5.584-1.766,7.943,0.541
			c3.23,3.156,4.846,4.734,8.076,7.891c2.361,2.307,2.639,5.85,0.574,7.912C582.837-170.801,581.694-169.658,579.343-167.307z"/>
		<path fill="#0B090A" d="M617.878-129.496c-2.209,2.209-5.949,2.152-8.295-0.189c-3.113-3.107-4.67-4.662-7.783-7.771
			c-2.346-2.34-2.418-6.066-0.234-8.252c2.375-2.373,3.537-3.535,5.836-5.834c2.117-2.115,5.729-1.928,8.1,0.387
			c3.148,3.074,4.721,4.611,7.869,7.686c2.371,2.314,2.574,5.912,0.424,8.063C621.456-133.072,620.276-131.895,617.878-129.496z"/>
		<path fill="#0B090A" d="M680.616-99.588c-2.223,2.223-5.982,2.162-8.35-0.137c-3.24-3.146-4.859-4.721-8.1-7.867
			c-2.367-2.299-2.516-5.967-0.336-8.148c2.387-2.387,3.576-3.578,5.973-5.975c2.189-2.189,5.963-2.146,8.367,0.117
			c3.291,3.096,4.936,4.645,8.227,7.74c2.404,2.264,2.535,5.949,0.305,8.18C684.263-103.238,683.05-102.021,680.616-99.588z"/>
		<path fill="#0B090A" d="M660.907-118.551c-2.174,2.174-5.891,2.072-8.258-0.227c-3.24-3.148-4.859-4.721-8.1-7.869
			c-2.367-2.299-2.557-5.93-0.424-8.061c2.332-2.332,3.496-3.496,5.842-5.844c2.145-2.145,5.885-2.064,8.287,0.199
			c3.289,3.1,4.934,4.646,8.223,7.744c2.404,2.264,2.57,5.918,0.387,8.102C664.476-122.117,663.286-120.93,660.907-118.551z"/>
		<path fill="#0B090A" d="M700.444-80.537c-2.283,2.283-6.066,2.264-8.445-0.043c-3.158-3.066-4.734-4.598-7.893-7.662
			c-2.377-2.309-2.486-5.998-0.246-8.24c2.436-2.434,3.652-3.648,6.094-6.09c2.246-2.248,6.035-2.238,8.451,0.033
			c3.207,3.016,4.809,4.523,8.016,7.539c2.414,2.271,2.514,5.971,0.227,8.258C704.163-84.256,702.925-83.018,700.444-80.537z"/>
		<path fill="#0B090A" d="M719.915-61.826c-2.334,2.334-6.154,2.357-8.533,0.049c-3.158-3.063-4.738-4.596-7.896-7.66
			c-2.379-2.307-2.447-6.037-0.156-8.328c2.488-2.488,3.73-3.73,6.223-6.223c2.295-2.295,6.119-2.32,8.535-0.049
			c3.207,3.014,4.811,4.523,8.02,7.537c2.416,2.27,2.482,6.002,0.148,8.336C723.718-65.629,722.45-64.361,719.915-61.826z"/>
		<path fill="#0B090A" d="M664.081-83.055c-2.27,2.27-6.061,2.242-8.396-0.09c-3.195-3.189-4.793-4.785-7.988-7.977
			c-2.336-2.33-2.379-6.107-0.133-8.354c2.457-2.457,3.672-3.67,6.086-6.084c2.207-2.205,5.926-2.109,8.287,0.195
			c3.232,3.154,4.85,4.732,8.082,7.887c2.361,2.305,2.471,6.014,0.23,8.256C667.796-86.77,666.565-85.539,664.081-83.055z"/>
		<path fill="#0B090A" d="M644.687-102.332c-2.24,2.242-6.02,2.203-8.354-0.129c-3.197-3.191-4.795-4.787-7.99-7.979
			c-2.336-2.33-2.389-6.096-0.172-8.314c2.426-2.426,3.621-3.619,5.99-5.988c2.166-2.164,5.848-2.029,8.209,0.275
			c3.23,3.156,4.846,4.734,8.078,7.889c2.361,2.307,2.512,5.977,0.313,8.176C648.353-105.994,647.14-104.785,644.687-102.332z"/>
		<path fill="#0B090A" d="M683.847-63.941c-2.309,2.309-6.094,2.295-8.439-0.047c-3.113-3.107-4.674-4.662-7.787-7.77
			c-2.346-2.34-2.373-6.109-0.092-8.393c2.48-2.48,3.711-3.711,6.164-6.162c2.256-2.258,6.002-2.201,8.373,0.111
			c3.15,3.072,4.725,4.609,7.875,7.68c2.373,2.314,2.445,6.041,0.152,8.334C687.603-67.697,686.353-66.449,683.847-63.941z"/>
		<path fill="#0B090A" d="M703.003-44.916c-2.338,2.338-6.137,2.338-8.482-0.002c-3.115-3.107-4.674-4.66-7.787-7.77
			c-2.346-2.34-2.361-6.123-0.049-8.436c2.512-2.512,3.764-3.762,6.262-6.26c2.299-2.299,6.082-2.283,8.455,0.031
			c3.152,3.07,4.727,4.607,7.877,7.678c2.373,2.313,2.408,6.078,0.072,8.414C706.813-48.723,705.542-47.455,703.003-44.916z"/>
		<path fill="#0B090A" d="M647.138-66.131c-2.252,2.248-5.959,2.131-8.275-0.221c-3.172-3.221-4.76-4.83-7.932-8.049
			c-2.318-2.352-2.434-6.049-0.211-8.264c2.434-2.422,3.664-3.648,6.186-6.16c2.305-2.295,6.129-2.303,8.463,0.031
			c3.193,3.191,4.791,4.789,7.984,7.982c2.334,2.332,2.332,6.154,0.023,8.459C650.849-69.83,649.603-68.588,647.138-66.131z"/>
		<path fill="#0B090A" d="M627.86-85.539c-2.219,2.207-5.891,2.049-8.209-0.303c-3.174-3.219-4.758-4.828-7.934-8.047
			c-2.318-2.352-2.477-6.004-0.285-8.182c2.398-2.381,3.625-3.594,6.141-6.094c2.301-2.283,6.121-2.291,8.455,0.041
			c3.195,3.193,4.791,4.789,7.984,7.982c2.334,2.332,2.332,6.156,0.027,8.449C631.521-89.182,630.288-87.955,627.86-85.539z"/>
		<path fill="#0B090A" d="M666.343-46.439c-2.297,2.295-6.031,2.225-8.355-0.139c-3.088-3.139-4.633-4.709-7.721-7.846
			c-2.324-2.363-2.398-6.088-0.133-8.35c2.461-2.455,3.707-3.693,6.227-6.209c2.318-2.314,6.121-2.318,8.465,0.023
			c3.111,3.111,4.668,4.666,7.781,7.775c2.344,2.344,2.342,6.145,0.016,8.471C670.093-50.186,668.837-48.934,666.343-46.439z"/>
		<path fill="#0B090A" d="M685.354-27.266c-2.336,2.336-6.109,2.309-8.432-0.055c-3.084-3.139-4.629-4.707-7.713-7.846
			c-2.324-2.365-2.354-6.133-0.053-8.434c2.502-2.5,3.758-3.754,6.289-6.283c2.328-2.328,6.131-2.332,8.475,0.012
			c3.113,3.109,4.668,4.666,7.779,7.777c2.344,2.342,2.344,6.139,0.004,8.48C689.161-31.072,687.892-29.803,685.354-27.266z"/>
		<path fill="#0B090A" d="M630.851-49.879c-2.18,2.176-5.818,1.98-8.08-0.43c-3.098-3.301-4.645-4.951-7.744-8.25
			c-2.264-2.41-2.377-6.111-0.252-8.227c2.324-2.314,3.482-3.471,5.824-5.803c2.141-2.131,5.809-1.965,8.119,0.393
			c3.164,3.229,4.746,4.844,7.908,8.072c2.313,2.359,2.391,6.094,0.199,8.281C634.427-53.449,633.237-52.26,630.851-49.879z"/>
		<path fill="#0B090A" d="M611.972-69.729c-2.115,2.105-5.699,1.855-7.965-0.555c-3.102-3.297-4.654-4.947-7.758-8.244
			c-2.268-2.408-2.434-6.055-0.373-8.1c2.254-2.236,3.377-3.354,5.656-5.615c2.082-2.066,5.705-1.855,8.018,0.504
			c3.166,3.227,4.752,4.842,7.918,8.068c2.313,2.359,2.438,6.047,0.305,8.168C615.44-73.18,614.286-72.031,611.972-69.729z"/>
		<path fill="#0B090A" d="M649.886-29.996c-2.26,2.258-5.93,2.125-8.199-0.299c-3.012-3.217-4.516-4.824-7.531-8.039
			c-2.27-2.422-2.328-6.166-0.127-8.363c2.391-2.387,3.586-3.578,5.99-5.977c2.211-2.207,5.898-2.09,8.219,0.279
			c3.08,3.146,4.619,4.719,7.699,7.865c2.318,2.371,2.354,6.133,0.09,8.396C653.565-33.672,652.339-32.447,649.886-29.996z"/>
		<path fill="#0B090A" d="M612.349-31.42c-2.252,2.248-5.939,2.102-8.154-0.363c-8.65-9.619-17.311-19.23-25.982-28.83
			c-2.223-2.461-2.188-6.314,0.006-8.492c3.15-3.129,4.676-4.643,7.693-7.639c2.1-2.084,5.641-1.783,7.9,0.635
			c8.811,9.439,17.621,18.881,26.418,28.332c2.254,2.422,2.311,6.188,0.109,8.385C617.175-36.236,615.585-34.648,612.349-31.42z"/>
		<path fill="#0B090A" d="M630.696-10.818c-2.297,2.295-5.973,2.166-8.189-0.313c-2.943-3.289-4.418-4.932-7.365-8.221
			c-2.219-2.475-2.152-6.346,0.115-8.609c3.285-3.279,4.902-4.893,8.119-8.104c2.219-2.215,5.84-2.029,8.1,0.404
			c3.002,3.229,4.502,4.844,7.502,8.074c2.258,2.434,2.254,6.238-0.016,8.506C635.675-15.793,634.024-14.146,630.696-10.818z"/>
		<path fill="#0B090A" d="M648.767,9.324c-2.334,2.336-6.02,2.221-8.229-0.26c-2.934-3.293-4.4-4.938-7.338-8.229
			c-2.213-2.479-2.125-6.371,0.178-8.672c8.477-8.473,16.955-16.945,25.43-25.418c2.275-2.273,6.006-2.203,8.324,0.168
			c3.076,3.146,4.613,4.721,7.689,7.867c2.316,2.371,2.303,6.184-0.027,8.514C666.116-8.031,657.442,0.648,648.767,9.324z"/>
		<path fill="#0B090A" d="M565.62-115.236c-1.967,1.939-5.439,1.559-7.707-0.855c-3.104-3.303-4.652-4.955-7.758-8.258
			c-2.268-2.412-2.547-5.936-0.631-7.816c2.096-2.057,3.139-3.08,5.256-5.16c1.938-1.9,5.447-1.561,7.758,0.803
			c3.166,3.232,4.746,4.852,7.91,8.086c2.313,2.361,2.549,5.926,0.564,7.883C568.843-118.414,567.771-117.359,565.62-115.236z"/>
		<path fill="#0B090A" d="M550.136-99.965c-2.15,2.123-5.814,1.93-8.047-0.527c-3.053-3.363-4.582-5.045-7.637-8.408
			c-2.232-2.455-2.225-6.271-0.098-8.363c2.326-2.289,3.447-3.391,5.643-5.547c2.006-1.971,5.445-1.549,7.705,0.873
			c3.094,3.316,4.639,4.975,7.73,8.291c2.258,2.424,2.477,6.012,0.432,8.029C553.628-103.41,552.489-102.287,550.136-99.965z"/>
		<path fill="#0B090A" d="M531.61-120.271c-2.123,2.088-5.787,1.883-8.021-0.572c-3.057-3.359-4.584-5.039-7.643-8.4
			c-2.234-2.453-2.234-6.256-0.133-8.314c2.299-2.25,3.396-3.324,5.543-5.422c1.961-1.918,5.359-1.447,7.619,0.975
			c3.096,3.314,4.641,4.971,7.734,8.285c2.26,2.422,2.525,5.959,0.527,7.922C535.05-123.65,533.935-122.555,531.61-120.271z"/>
		<path fill="#0B090A" d="M568.062-80.059c-2.188,2.168-5.846,1.992-8.082-0.477c-2.969-3.279-4.455-4.918-7.428-8.195
			c-2.238-2.469-2.217-6.285-0.053-8.424c2.354-2.322,3.488-3.445,5.729-5.656c2.063-2.033,5.527-1.666,7.795,0.768
			c3.008,3.232,4.512,4.848,7.52,8.082c2.266,2.434,2.436,6.059,0.334,8.139C571.595-83.561,570.44-82.414,568.062-80.059z"/>
		<path fill="#0B090A" d="M610.786-198.769c-2.184,2.183-5.852,2.05-8.27-0.217c-3.213-3.01-4.816-4.514-8.027-7.525
			c-2.42-2.268-2.697-5.789-0.533-7.953c0.26-0.26,0.393-0.393,0.654-0.654c2.178-2.178,6.002-2.201,8.43,0.057
			c3.227,2.996,4.836,4.494,8.063,7.49c2.428,2.258,2.541,5.945,0.344,8.143C611.181-199.164,611.05-199.033,610.786-198.769z"/>
		<path fill="#0B090A" d="M630.546-180.346c-2.207,2.207-5.9,2.104-8.32-0.162c-3.211-3.012-4.816-4.518-8.029-7.527
			c-2.418-2.268-2.67-5.816-0.482-8.004c0.264-0.264,0.396-0.396,0.662-0.662c2.199-2.199,6.029-2.226,8.457,0.029
			c3.227,2.998,4.838,4.496,8.063,7.494c2.43,2.256,2.533,5.947,0.316,8.164C630.944-180.746,630.812-180.611,630.546-180.346z"/>
		<path fill="#0B090A" d="M650.31-161.926c-2.23,2.23-5.953,2.156-8.373-0.109c-3.213-3.01-4.82-4.516-8.033-7.527
			c-2.418-2.266-2.641-5.844-0.43-8.053c0.266-0.268,0.4-0.4,0.668-0.67c2.221-2.221,6.057-2.254,8.486,0.002
			c3.227,2.996,4.836,4.494,8.063,7.49c2.43,2.258,2.531,5.955,0.293,8.193C650.712-162.33,650.579-162.193,650.31-161.926z"/>
		<path fill="#0B090A" d="M567.868-208.175c-1.951,1.951-5.465,1.666-7.842-0.645c-6.883-6.693-10.324-10.039-17.209-16.73
			c-2.375-2.311-2.764-5.721-0.877-7.607c2.051-2.051,3.068-3.07,5.15-5.152c1.916-1.918,5.469-1.67,7.881,0.605
			c6.986,6.588,10.48,9.883,17.467,16.473c2.412,2.273,2.73,5.756,0.754,7.732C571.046-211.353,569.987-210.296,567.868-208.175z"/>
		<path fill="#0B090A" d="M299.03-416.063c-1.665,1.626-4.638,0.777-6.951-1.582c-6.982-7.118-13.959-14.24-20.936-21.363
			c-2.311-2.36-3.176-5.276-1.598-6.849c1.715-1.709,2.69-2.681,5.033-5.019c2.156-2.152,5.969-2.168,8.313,0.173
			c7.076,7.067,14.15,14.135,21.227,21.201c2.344,2.342,2.333,6.164,0.131,8.328C301.855-418.823,300.841-417.83,299.03-416.063z"/>
		<path fill="#0B090A" d="M536.56-177.037c-2.092,2.041-5.576,1.686-7.908-0.676c-7.037-7.121-14.074-14.244-21.111-21.365
			c-2.332-2.359-2.676-5.766-0.627-7.754c2.229-2.16,3.393-3.291,5.893-5.725c2.301-2.24,6.111-2.268,8.455,0.076
			c7.072,7.07,14.143,14.143,21.219,21.21c2.342,2.342,2.33,6.162,0.029,8.414C540.011-180.408,538.831-179.256,536.56-177.037z"/>
		<path fill="#0B090A" d="M298.581-397.615c-1.051,1.004-3.737-0.126-5.98-2.542c-9.688-10.441-19.367-20.891-29.034-31.352
			c-2.231-2.417-3.313-5.095-2.438-5.965c0.949-0.945,1.412-1.406,2.471-2.46c0.976-0.97,3.766,0.027,6.064,2.394
			c9.955,10.244,19.914,20.483,29.878,30.718c2.306,2.367,3.125,5.296,1.982,6.392C300.282-399.24,299.724-398.706,298.581-397.615z
			"/>
		<path fill="#0B090A" d="M521.362-163.623c-1.834,1.785-5.174,1.277-7.457-1.139c-9.877-10.453-19.751-20.906-29.628-31.359
			c-2.281-2.414-2.732-5.716-1.018-7.365c1.863-1.793,2.787-2.684,4.701-4.525c1.76-1.695,5.137-1.213,7.463,1.154
			c10.06,10.24,20.118,20.48,30.177,30.72c2.324,2.367,2.645,5.813,0.775,7.633C524.345-166.525,523.353-165.561,521.362-163.623z"
			/>
		<path fill="#0B090A" d="M275.06-402.506c-1.678,1.644-5.107,1.287-7.279-1.175c-6.027-6.835-9.035-10.253-15.033-17.092
			c-2.16-2.463-2.281-6.084-0.676-7.685c2.133-2.126,2.968-2.958,4.457-4.44c1.121-1.116,3.673,0.1,5.891,2.526
			c6.159,6.736,9.244,10.102,15.423,16.836c2.226,2.425,3.184,5.208,1.962,6.396C278.183-405.563,277.287-404.689,275.06-402.506z"
			/>
		<path fill="#0B090A" d="M322.802-349.156c-1.803,1.729-5.316,1.405-7.518-1.055c-6.107-6.83-9.156-10.244-15.24-17.075
			c-2.191-2.46-2.268-6.111-0.521-7.799c2.316-2.242,3.271-3.159,5.023-4.834c1.318-1.262,4.067-0.184,6.307,2.241
			c6.217,6.731,9.328,10.095,15.561,16.825c2.245,2.424,3.054,5.343,1.65,6.675C326.198-352.411,325.193-351.453,322.802-349.156z"
			/>
		<path fill="#0B090A" d="M296.208-378.79c-1.736,1.682-5.207,1.34-7.393-1.121c-4.221-4.753-6.326-7.13-10.533-11.884
			c-2.179-2.461-2.271-6.098-0.586-7.747c2.237-2.189,3.14-3.067,4.775-4.655c1.232-1.195,3.896-0.054,6.125,2.371
			c4.308,4.684,6.465,7.023,10.781,11.706c2.234,2.424,3.124,5.271,1.818,6.522C299.462-381.935,298.513-381.024,296.208-378.79z"/>
		<path fill="#0B090A" d="M431.122-229.917c-1.998,1.918-5.612,1.656-7.852-0.803c-32.556-35.775-65.039-71.616-97.35-107.615
			c-2.205-2.459-2.26-6.123-0.453-7.857c2.4-2.303,3.413-3.266,5.289-5.045c1.414-1.34,4.258-0.337,6.506,2.087
			c32.891,35.435,65.895,70.765,98.945,106.05c2.27,2.424,2.791,5.643,1.061,7.295C434.971-233.613,433.773-232.464,431.122-229.917
			z"/>
		<path fill="#0B090A" d="M552.632-194.355c-2.113,2.113-5.813,2.014-8.156-0.328c-2.832-2.826-4.246-4.24-7.076-7.066
			c-2.346-2.34-2.463-6.025-0.371-8.117c2.273-2.271,3.371-3.365,5.521-5.518c1.98-1.98,5.465-1.664,7.836,0.65
			c2.863,2.795,4.295,4.191,7.156,6.986c2.371,2.316,2.699,5.785,0.686,7.797C556.04-197.763,554.929-196.652,552.632-194.355z"/>
		<path fill="#0B090A" d="M534.194-212.687c-2.088,2.088-5.773,1.975-8.119-0.365c-2.83-2.826-4.248-4.24-7.078-7.066
			c-2.346-2.34-2.471-6.012-0.406-8.078c2.244-2.244,3.322-3.318,5.432-5.428c1.941-1.941,5.389-1.59,7.76,0.725
			c2.861,2.795,4.293,4.193,7.154,6.988c2.371,2.314,2.74,5.746,0.766,7.721C537.556-216.046,536.462-214.955,534.194-212.687z"/>
		<path fill="#0B090A" d="M515.753-231.015c-2.061,2.061-5.736,1.936-8.08-0.406c-2.832-2.826-4.246-4.236-7.078-7.063
			c-2.344-2.342-2.48-6.004-0.443-8.041c2.215-2.215,3.271-3.271,5.338-5.338c1.902-1.903,5.314-1.516,7.686,0.799
			c2.863,2.795,4.295,4.193,7.158,6.988c2.371,2.314,2.771,5.709,0.836,7.645C519.065-234.328,517.993-233.253,515.753-231.015z"/>
		<path fill="#0B090A" d="M496.604-250.05c-2.033,2.033-5.695,1.896-8.039-0.444c-2.832-2.826-4.248-4.239-7.078-7.065
			c-2.346-2.34-2.496-5.988-0.486-7.998c2.186-2.185,3.221-3.223,5.244-5.245c1.863-1.862,5.234-1.436,7.605,0.879
			c2.863,2.794,4.298,4.19,7.161,6.985c2.371,2.314,2.813,5.672,0.916,7.566C499.868-253.313,498.813-252.259,496.604-250.05z"/>
		<path fill="#0B090A" d="M478.164-268.379c-2.006,2.007-5.656,1.858-8.002-0.483c-2.831-2.825-4.245-4.238-7.077-7.064
			c-2.345-2.341-2.51-5.978-0.527-7.961c2.154-2.154,3.173-3.171,5.152-5.15c1.823-1.822,5.159-1.359,7.532,0.955
			c2.863,2.793,4.295,4.19,7.158,6.984c2.371,2.314,2.85,5.635,0.994,7.49C481.379-271.591,480.344-270.559,478.164-268.379z"/>
		<path fill="#0B090A" d="M459.722-286.707c-1.979,1.979-5.617,1.816-7.962-0.523c-2.831-2.826-4.247-4.237-7.077-7.063
			c-2.346-2.341-2.523-5.964-0.568-7.919c2.123-2.124,3.122-3.122,5.059-5.058c1.783-1.783,5.083-1.283,7.455,1.031
			c2.864,2.793,4.297,4.189,7.16,6.982c2.372,2.314,2.887,5.599,1.07,7.416C462.884-289.869,461.871-288.856,459.722-286.707z"/>
		<path fill="#0B090A" d="M440.569-305.736c-1.95,1.95-5.574,1.774-7.92-0.566c-2.832-2.826-4.248-4.239-7.08-7.064
			c-2.346-2.34-2.535-5.948-0.609-7.874c2.092-2.092,3.068-3.069,4.959-4.96c1.74-1.741,5.002-1.202,7.375,1.111
			c2.865,2.792,4.297,4.188,7.162,6.981c2.372,2.313,2.927,5.557,1.152,7.332C443.68-308.848,442.687-307.854,440.569-305.736z"/>
		<path fill="#0B090A" d="M422.122-324.06c-1.922,1.921-5.531,1.733-7.877-0.607c-2.832-2.825-4.249-4.239-7.08-7.064
			c-2.346-2.34-2.551-5.934-0.654-7.831c2.061-2.061,3.018-3.018,4.863-4.864c1.699-1.699,4.924-1.123,7.297,1.189
			c2.865,2.792,4.299,4.188,7.164,6.979c2.374,2.313,2.965,5.518,1.23,7.252C425.182-327.12,424.209-326.147,422.122-324.06z"/>
		<path fill="#0B090A" d="M403.673-342.38c-1.893,1.892-5.49,1.69-7.836-0.65c-2.832-2.825-4.247-4.239-7.079-7.064
			c-2.346-2.34-2.565-5.92-0.698-7.787c2.029-2.029,2.965-2.963,4.766-4.765c1.658-1.658,4.844-1.044,7.219,1.268
			c2.865,2.791,4.299,4.186,7.166,6.977c2.373,2.312,3.005,5.479,1.313,7.172C406.683-345.389,405.729-344.436,403.673-342.38z"/>
		<path fill="#0B090A" d="M384.511-361.402c-1.861,1.861-5.441,1.644-7.788-0.696c-2.832-2.825-4.249-4.236-7.081-7.061
			c-2.346-2.34-2.581-5.906-0.746-7.742c1.994-1.994,2.908-2.907,4.662-4.66c1.613-1.614,4.76-0.96,7.135,1.35
			c2.867,2.79,4.302,4.185,7.169,6.975c2.375,2.311,3.046,5.438,1.397,7.088C387.466-364.355,386.534-363.425,384.511-361.402z"/>
		<path fill="#0B090A" d="M366.056-379.718c-1.831,1.831-5.398,1.601-7.744-0.739c-2.833-2.825-4.248-4.238-7.08-7.063
			c-2.347-2.34-2.598-5.888-0.793-7.693c1.961-1.96,2.854-2.852,4.559-4.558c1.57-1.57,4.678-0.877,7.055,1.433
			c2.868,2.789,4.301,4.183,7.17,6.972c2.375,2.31,3.088,5.396,1.48,7.002C368.956-382.618,368.045-381.707,366.056-379.718z"/>
		<path fill="#0B090A" d="M347.599-398.029c-1.799,1.8-5.352,1.553-7.699-0.787c-2.832-2.824-4.248-4.236-7.08-7.061
			c-2.348-2.339-2.613-5.871-0.842-7.644c1.926-1.926,2.795-2.797,4.453-4.455c1.525-1.526,4.594-0.792,6.971,1.517
			c2.87,2.787,4.305,4.18,7.174,6.967c2.377,2.309,3.129,5.355,1.565,6.918C350.442-400.874,349.554-399.984,347.599-398.029z"/>
		<path fill="#0B090A" d="M328.427-417.041c-1.766,1.766-5.301,1.502-7.647-0.837c-2.833-2.824-4.249-4.235-7.083-7.059
			c-2.346-2.339-2.633-5.855-0.895-7.593c1.889-1.888,2.734-2.734,4.341-4.341c1.479-1.479,4.506-0.704,6.884,1.604
			c2.871,2.786,4.307,4.178,7.178,6.964c2.378,2.308,3.174,5.311,1.656,6.828C331.211-419.826,330.346-418.96,328.427-417.041z"/>
		<path fill="#0B090A" d="M309.96-435.345c-1.732,1.733-5.251,1.451-7.598-0.888c-6.801-6.776-10.2-10.163-17.002-16.938
			c-2.348-2.338-2.66-5.824-0.975-7.509c1.83-1.831,2.641-2.642,4.17-4.171c1.406-1.408,4.367-0.569,6.748,1.737
			c6.896,6.68,10.344,10.021,17.236,16.705c2.379,2.307,3.218,5.267,1.746,6.739C312.687-438.071,311.843-437.228,309.96-435.345z"
			/>
		<path fill="#0B090A" d="M506.403-147.639c-2.1,2.053-5.744,1.838-7.988-0.627c-6.233-6.84-9.349-10.26-15.581-17.098
			c-2.246-2.461-2.252-6.225-0.184-8.232c2.748-2.668,4.023-3.906,6.498-6.303c1.865-1.805,5.154-1.236,7.428,1.189
			c6.317,6.734,9.478,10.105,15.792,16.842c2.275,2.426,2.613,5.857,0.688,7.734C510.501-151.643,509.192-150.363,506.403-147.639z"
			/>
		<path fill="#0B090A" d="M457.552-201.023c-2.035,1.965-5.661,1.721-7.904-0.74c-6.227-6.834-9.338-10.248-15.561-17.078
			c-2.24-2.461-2.258-6.191-0.256-8.113c2.656-2.555,3.857-3.705,6.165-5.91c1.737-1.658,4.905-0.955,7.178,1.469
			c6.308,6.73,9.464,10.096,15.774,16.826c2.273,2.424,2.732,5.719,0.932,7.449C461.491-204.824,460.253-203.632,457.552-201.023z"
			/>
		<path fill="#0B090A" d="M479.258-177.305c-2.064,2.004-5.697,1.771-7.941-0.691c-4.336-4.754-6.503-7.131-10.837-11.885
			c-2.243-2.461-2.254-6.209-0.215-8.177c2.706-2.615,3.947-3.813,6.346-6.121c1.807-1.738,5.044-1.107,7.317,1.316
			c4.393,4.684,6.588,7.025,10.98,11.71c2.275,2.426,2.682,5.781,0.826,7.574C483.27-181.195,481.998-179.963,479.258-177.305z"/>
	</g>
	<rect x="285" y="-99" display="inline" fill="#6FBB78" width="50" height="50"/>
	<rect x="235" y="-99" display="inline" fill="#6FBB78" width="50" height="50"/>
	<rect x="185" y="-99" display="inline" fill="#6FBB78" width="50" height="50"/>
	<rect x="135" y="-99" display="inline" fill="#6FBB78" width="50" height="50"/>
	<rect x="85" y="-99" display="inline" fill="#6FBB78" width="50" height="50"/>
	<rect x="35" y="-99" display="inline" fill="#6FBB78" width="50" height="50"/>
	<rect x="185" y="-149" display="inline" fill="#6FBB78" width="50" height="50"/>
	<rect x="135" y="-149" display="inline" fill="#6FBB78" width="50" height="50"/>
	<rect x="85" y="-149" display="inline" fill="#6FBB78" width="50" height="50"/>
	<rect x="35" y="-149" display="inline" fill="#6FBB78" width="50" height="50"/>
</g>
</svg>
